<svg width="100" height="100" viewBox="0 0 100 100" fill="none" xmlns="http://www.w3.org/2000/svg">
<path fill-rule="evenodd" clip-rule="evenodd" d="M47.0104 57.3208C47.2948 57.0364 47.5204 56.6988 47.6743 56.3272C47.8283 55.9556 47.9075 55.5574 47.9075 55.1552C47.9075 54.753 47.8283 54.3547 47.6743 53.9831C47.5204 53.6116 47.2948 53.2739 47.0104 52.9896C46.2114 52.1906 45.5776 51.2421 45.1452 50.1981C44.7127 49.1542 44.4902 48.0353 44.4902 46.9054C44.4902 45.7755 44.7127 44.6566 45.1452 43.6127C45.5776 42.5687 46.2114 41.6202 47.0104 40.8212L57.3237 30.5108C58.1227 29.7118 59.0712 29.078 60.1152 28.6456C61.1591 28.2132 62.278 27.9907 63.4079 27.9907C64.5378 27.9907 65.6567 28.2132 66.7006 28.6456C67.7445 29.078 68.6931 29.7118 69.4921 30.5108C70.291 31.3098 70.9248 32.2583 71.3572 33.3023C71.7896 34.3462 72.0122 35.465 72.0122 36.595C72.0122 37.7249 71.7896 38.8438 71.3572 39.8877C70.9248 40.9316 70.291 41.8802 69.4921 42.6791L66.3041 45.8641C66.0197 46.1485 65.7942 46.4862 65.6402 46.8577C65.4863 47.2293 65.4071 47.6276 65.4071 48.0298C65.4071 48.432 65.4863 48.8302 65.6402 49.2018C65.7942 49.5734 66.0197 49.911 66.3041 50.1954C66.8785 50.7698 67.6575 51.0924 68.4698 51.0924C68.872 51.0924 69.2702 51.0132 69.6418 50.8593C70.0134 50.7054 70.351 50.4798 70.6354 50.1954L73.8233 47.0104C76.5856 44.2481 78.1375 40.5015 78.1375 36.595C78.1375 32.6884 76.5856 28.9419 73.8233 26.1796C71.061 23.4172 67.3144 21.8654 63.4079 21.8654C59.5013 21.8654 55.7548 23.4172 52.9925 26.1796L42.6791 36.49C41.3113 37.8577 40.2263 39.4815 39.486 41.2686C38.7458 43.0557 38.3647 44.9711 38.3647 46.9054C38.3647 48.8397 38.7458 50.7551 39.486 52.5422C40.2263 54.3293 41.3113 55.9531 42.6791 57.3208C43.875 58.5166 45.8146 58.5166 47.0104 57.3208ZM52.9896 42.6791C52.7051 42.9635 52.4795 43.3012 52.3256 43.6727C52.1717 44.0443 52.0925 44.4426 52.0925 44.8448C52.0925 45.247 52.1717 45.6452 52.3256 46.0168C52.4795 46.3884 52.7051 46.726 52.9896 47.0104C53.7886 47.8094 54.4224 48.7579 54.8548 49.8018C55.2872 50.8457 55.5098 51.9646 55.5098 53.0946C55.5098 54.2245 55.2872 55.3434 54.8548 56.3873C54.4224 57.4312 53.7886 58.3798 52.9896 59.1787L42.7812 69.3871C41.9865 70.2048 41.0371 70.8564 39.9883 71.3039C38.9395 71.7515 37.8122 71.9861 36.6719 71.9942C35.5316 72.0022 34.4011 71.7835 33.3461 71.3508C32.2911 70.9181 31.3326 70.28 30.5264 69.4736C29.7201 68.6671 29.0823 67.7085 28.6498 66.6534C28.2173 65.5983 27.9989 64.4677 28.0072 63.3274C28.0155 62.1872 28.2504 61.0599 28.6983 60.0112C29.1461 58.9625 29.7979 58.0133 30.6158 57.2187L33.6054 54.2291C34.1797 53.6548 34.5024 52.8758 34.5024 52.0635C34.5024 51.2513 34.1797 50.4723 33.6054 49.8979C33.031 49.3235 32.252 49.0009 31.4398 49.0009C30.6275 49.0009 29.8485 49.3235 29.2741 49.8979L26.2875 52.8875C23.5251 55.6498 21.9733 59.3964 21.9733 63.3029C21.9733 67.2094 23.5251 70.956 26.2875 73.7183C29.0498 76.4806 32.7964 78.0325 36.7029 78.0325C40.6094 78.0325 44.356 76.4806 47.1183 73.7183L57.3266 63.51C58.6945 62.1422 59.7795 60.5185 60.5198 58.7314C61.26 56.9443 61.641 55.0289 61.641 53.0946C61.641 51.1602 61.26 49.2448 60.5198 47.4577C59.7795 45.6707 58.6945 44.0469 57.3266 42.6791C57.0423 42.3947 56.7046 42.1691 56.3331 42.0152C55.9615 41.8613 55.5632 41.782 55.161 41.782C54.7588 41.782 54.3606 41.8613 53.989 42.0152C53.6174 42.1691 53.2798 42.3947 52.9954 42.6791H52.9896Z" fill="white"/>
<circle cx="50" cy="50" r="47.25" stroke="white" stroke-width="5.5"/>
</svg>
